<svg width="170" height="144" viewBox="0 0 170 144" fill="none" xmlns="http://www.w3.org/2000/svg">
<path d="M85.1102 58.2852V143.223L19.1631 114.739L19.4777 30.108L85.1102 58.2852Z" fill="#418DF9"/>
<path d="M85.1113 58.336V143.274L150.738 115.773V30.379L85.1113 58.336Z" fill="#A2BDFF"/>
<path d="M85.1102 58.2852L151.058 30.6634L85.6282 1.6604L19.1631 29.9729L85.1102 58.2852Z" fill="#428BF2"/>
<path d="M1.15433 45.1248L67.5215 77.3387C67.6999 77.4253 67.9017 77.4509 68.0961 77.4116C68.2904 77.3723 68.4664 77.2702 68.5971 77.1212L85.1105 58.285L19.1634 29.9727L1.00663 43.5866C0.882479 43.6797 0.784347 43.8031 0.721662 43.9451C0.658976 44.087 0.633843 44.2427 0.648675 44.3971C0.663507 44.5516 0.717804 44.6996 0.806355 44.8271C0.894906 44.9545 1.01473 45.057 1.15433 45.1248Z" fill="#699CFF"/>
<path d="M151.058 30.6633L169.373 47.2221C169.485 47.3231 169.57 47.4504 169.62 47.5924C169.67 47.7345 169.684 47.8868 169.66 48.0356C169.636 48.1844 169.576 48.3249 169.484 48.4445C169.393 48.564 169.273 48.6587 169.135 48.7201L103.586 77.9745C103.411 78.0527 103.216 78.0732 103.028 78.0332C102.841 77.9932 102.671 77.8947 102.543 77.7519L85.1104 58.2852L151.058 30.6633Z" fill="#699CFF"/>
<path d="M85.6279 1.66034L151.241 30.6633L160.677 28.4762C160.862 28.4332 161.03 28.3328 161.155 28.1892C161.28 28.0456 161.357 27.8662 161.374 27.6765C161.391 27.4868 161.348 27.2966 161.251 27.1328C161.154 26.969 161.007 26.84 160.832 26.7643L100.92 0.804246C100.789 0.747426 100.646 0.722474 100.504 0.731444L85.6279 1.66034Z" fill="#699CFF"/>
<path d="M85.6284 1.66029L20.3833 30.1079L12.1355 28.7219C11.9445 28.6862 11.7701 28.5901 11.638 28.4477C11.5059 28.3053 11.4231 28.1242 11.4019 27.9311C11.3807 27.738 11.4222 27.5432 11.5202 27.3755C11.6183 27.2078 11.7677 27.0761 11.9464 26.9999L73.3396 0.541689C73.4753 0.484018 73.623 0.460321 73.7699 0.472663L85.6284 1.66029Z" fill="#699CFF"/>
<path d="M102.235 93.2439C103.345 93.2439 104.245 91.6013 104.245 89.5751C104.245 87.5489 103.345 85.9062 102.235 85.9062C101.125 85.9062 100.225 87.5489 100.225 89.5751C100.225 91.6013 101.125 93.2439 102.235 93.2439Z" fill="white"/>
<path d="M134.619 80.0486C135.729 80.0486 136.629 78.406 136.629 76.3798C136.629 74.3535 135.729 72.7109 134.619 72.7109C133.508 72.7109 132.608 74.3535 132.608 76.3798C132.608 78.406 133.508 80.0486 134.619 80.0486Z" fill="white"/>
<path d="M113.883 112.613L112.578 112.106C115.47 104.661 119.097 100.559 123.357 99.915C127.433 99.299 130.866 102.107 132.112 103.677L131.015 104.547C130.153 103.461 127.137 100.76 123.567 101.299C119.891 101.855 116.542 105.767 113.883 112.613Z" fill="white"/>
</svg>
